# xmcd
#
# Track frame offsets:
# 150
# 13810
# 24870
# 39892
# 55382
# 69415
# 84785
# 98572
# 112495
# 125932
# 140392
# 156235
#
# Disc length: 2268 seconds
#
#
# Revision: 0
# Processed by: cddbd v1.5.2PL0 Copyright (c) Steve Scherf et al.
# Submitted via: FreeRIP 2.95 
#
DISCID=9b08da0c
DTITLE=Stodertal Trio - Träume der Erinnerung - Träume der Erinnerung
DYEAR=1900
DGENRE=Volkstümlich
TTITLE0=A bissal liab sein zu dir
TTITLE1=Otto, spiel doch mal Otto
TTITLE2=Kloane Herensfee
TTITLE3=Angelina
TTITLE4=Und da Steffl schaut oba
TTITLE5=Mein Stiefel
TTITLE6=Träume der Erinnerung
TTITLE7=Weil i di gern hab
TTITLE8=An alten Baum verpflanzt ma net
TTITLE9=Mountainbike Blues
TTITLE10=I muass da gschwind no sagn
TTITLE11=Wenn a Sternderl vom Himmel fällt
EXTD=
EXTT0=
EXTT1=
EXTT2=
EXTT3=
EXTT4=
EXTT5=
EXTT6=
EXTT7=
EXTT8=
EXTT9=
EXTT10=
EXTT11=
PLAYORDER=
